<svg id="visual" viewBox="0 0 1920 1080" width="1920" height="1080" xmlns="http://www.w3.org/2000/svg" xmlns:xlink="http://www.w3.org/1999/xlink" version="1.1"><rect x="0" y="0" width="1920" height="1080" fill="#f8f7fc"></rect><defs><linearGradient id="grad1_0" x1="43.8%" y1="100%" x2="100%" y2="0%"><stop offset="14.444444444444446%" stop-color="#dcdee5" stop-opacity="1"></stop><stop offset="85.55555555555554%" stop-color="#dcdee5" stop-opacity="1"></stop></linearGradient></defs><defs><linearGradient id="grad1_1" x1="43.8%" y1="100%" x2="100%" y2="0%"><stop offset="14.444444444444446%" stop-color="#dcdee5" stop-opacity="1"></stop><stop offset="85.55555555555554%" stop-color="#eaeaf0" stop-opacity="1"></stop></linearGradient></defs><defs><linearGradient id="grad1_2" x1="43.8%" y1="100%" x2="100%" y2="0%"><stop offset="14.444444444444446%" stop-color="#f8f7fc" stop-opacity="1"></stop><stop offset="85.55555555555554%" stop-color="#eaeaf0" stop-opacity="1"></stop></linearGradient></defs><defs><linearGradient id="grad2_0" x1="0%" y1="100%" x2="56.3%" y2="0%"><stop offset="14.444444444444446%" stop-color="#dcdee5" stop-opacity="1"></stop><stop offset="85.55555555555554%" stop-color="#dcdee5" stop-opacity="1"></stop></linearGradient></defs><defs><linearGradient id="grad2_1" x1="0%" y1="100%" x2="56.3%" y2="0%"><stop offset="14.444444444444446%" stop-color="#eaeaf0" stop-opacity="1"></stop><stop offset="85.55555555555554%" stop-color="#dcdee5" stop-opacity="1"></stop></linearGradient></defs><defs><linearGradient id="grad2_2" x1="0%" y1="100%" x2="56.3%" y2="0%"><stop offset="14.444444444444446%" stop-color="#eaeaf0" stop-opacity="1"></stop><stop offset="85.55555555555554%" stop-color="#f8f7fc" stop-opacity="1"></stop></linearGradient></defs><g transform="translate(1920, 1080)"><path d="M-756 0C-741.5 -141.4 -727 -282.8 -654.7 -378C-582.4 -473.2 -452.3 -522.3 -333.5 -577.6C-214.7 -632.9 -107.4 -694.5 0 -756L0 0Z" fill="#f1f1f6"></path><path d="M-504 0C-494.3 -94.3 -484.7 -188.5 -436.5 -252C-388.3 -315.5 -301.5 -348.2 -222.3 -385.1C-143.2 -422 -71.6 -463 0 -504L0 0Z" fill="#e3e4eb"></path><path d="M-252 0C-247.2 -47.1 -242.3 -94.3 -218.2 -126C-194.1 -157.7 -150.8 -174.1 -111.2 -192.5C-71.6 -211 -35.8 -231.5 0 -252L0 0Z" fill="#dcdee5"></path></g><g transform="translate(0, 0)"><path d="M756 0C742.5 143.1 729 286.2 654.7 378C580.4 469.8 445.3 510.2 326 564.6C206.7 619.1 103.4 687.5 0 756L0 0Z" fill="#f1f1f6"></path><path d="M504 0C495 95.4 486 190.8 436.5 252C386.9 313.2 296.8 340.1 217.3 376.4C137.8 412.7 68.9 458.4 0 504L0 0Z" fill="#e3e4eb"></path><path d="M252 0C247.5 47.7 243 95.4 218.2 126C193.5 156.6 148.4 170.1 108.7 188.2C68.9 206.4 34.5 229.2 0 252L0 0Z" fill="#dcdee5"></path></g></svg>